<?xml version="1.0" encoding="utf-8"?>
<!-- Generator: Adobe Illustrator 22.0.1, SVG Export Plug-In . SVG Version: 6.00 Build 0)  -->
<svg version="1.1" id="Layer_1" xmlns="http://www.w3.org/2000/svg" xmlns:xlink="http://www.w3.org/1999/xlink" x="0px" y="0px"
	 viewBox="0 0 100 100" style="enable-background:new 0 0 100 100;" xml:space="preserve">
<style type="text/css">
	.st0{fill:#FFFFFF;}
</style>
<g>
	<path class="st0" d="M49.7,95.9c25.3,0,46-20.6,46-46c0-25.3-20.6-46-46-46c-25.4,0-46,20.6-46,46S24.4,95.9,49.7,95.9z M49.7,6
		c24.2,0,44,19.7,44,44c0,24.2-19.7,44-44,44c-24.2,0-44-19.7-44-44C5.8,25.7,25.5,6,49.7,6z"/>
	<path class="st0" d="M32.9,78h9.4c0.2,0,0.4-0.1,0.5-0.2l1.3-0.8c0.1-0.1,0.3-0.2,0.3-0.4l4.8-8.9l1.4-0.9h15.8c0.6,0,1-0.4,1-1
		V52.6c0-0.6-0.4-1-1-1H58l9.4-17.4c0.1-0.1,0.1-0.3,0.1-0.5V23c0-0.6-0.4-1-1-1h-9.4c-0.2,0-0.4,0.1-0.5,0.2l-1.3,0.8
		c-0.1,0.1-0.3,0.2-0.3,0.4l-4.8,8.9l-1.1,0.7H33c-0.6,0-1,0.4-1,1v13.3c0,0.6,0.4,1,1,1h8.4l0.1,0.1l-9.4,17.5
		c-0.1,0.1-0.1,0.3-0.1,0.5V77C31.9,77.5,32.4,78,32.9,78z M33.9,66.6l9.7-17.9c0.2-0.4,0.1-0.9-0.2-1.2l-1-1
		c-0.2-0.2-0.4-0.3-0.7-0.3H34V34.9h15.4c0.2,0,0.4-0.1,0.5-0.2l1.6-1c0.1-0.1,0.3-0.2,0.3-0.4l4.8-8.9l0.8-0.5h8.1v9.4l-9.7,17.9
		c-0.2,0.4-0.1,0.9,0.2,1.2l0.8,0.8c0.2,0.2,0.4,0.3,0.7,0.3h8v11.3H50.4c-0.2,0-0.4,0.1-0.5,0.2L48,66.2c-0.1,0.1-0.3,0.2-0.3,0.4
		l-4.8,8.9L42,76h-8.1L33.9,66.6L33.9,66.6z"/>
</g>
</svg>
