<?xml version="1.0" ?><!DOCTYPE svg  PUBLIC '-//W3C//DTD SVG 1.1//EN'  'http://www.w3.org/Graphics/SVG/1.1/DTD/svg11.dtd'><svg enable-background="new 0 0 100 100" height="100px" id="Layer_1" version="1.1" viewBox="0 0 100 100" width="100px" xml:space="preserve" xmlns="http://www.w3.org/2000/svg" xmlns:xlink="http://www.w3.org/1999/xlink"><g><path d="M49.749,95.948c25.35,0,45.974-20.624,45.974-45.975C95.723,24.624,75.099,4,49.749,4   C24.398,4,3.774,24.624,3.774,49.974C3.774,75.324,24.398,95.948,49.749,95.948z M49.749,6c24.247,0,43.974,19.727,43.974,43.974   c0,24.248-19.727,43.975-43.974,43.975c-24.248,0-43.975-19.727-43.975-43.975C5.774,25.727,25.501,6,49.749,6z" fill="#04CC47"/><path d="M32.949,77.958h9.384c0.188,0,0.374-0.053,0.533-0.154l1.267-0.798c0.146-0.092,0.265-0.22,0.347-0.371   l4.805-8.9l1.413-0.891h15.787c0.553,0,1-0.448,1-1V52.556c0-0.552-0.447-1-1-1h-8.466l9.409-17.433   c0.079-0.146,0.12-0.309,0.12-0.475V22.99c0-0.552-0.447-1-1-1h-9.386c-0.188,0-0.374,0.053-0.533,0.154l-1.266,0.798   c-0.146,0.092-0.265,0.219-0.347,0.371l-4.805,8.9l-1.096,0.69H33.013c-0.553,0-1,0.448-1,1V47.19c0,0.552,0.447,1,1,1h8.367   l0.135,0.134l-9.445,17.5c-0.079,0.146-0.12,0.309-0.12,0.475v10.659C31.949,77.511,32.396,77.958,32.949,77.958z M33.949,66.552   l9.679-17.932c0.21-0.389,0.14-0.869-0.172-1.182l-0.953-0.955c-0.188-0.188-0.442-0.293-0.708-0.293h-7.782V34.904h15.393   c0.188,0,0.374-0.053,0.533-0.154l1.562-0.984c0.146-0.091,0.265-0.219,0.347-0.371l4.805-8.9l0.8-0.504h8.097v9.406l-9.679,17.932   c-0.21,0.389-0.14,0.87,0.173,1.182l0.753,0.753c0.188,0.188,0.441,0.293,0.707,0.293h7.982v11.288H50.408   c-0.188,0-0.374,0.053-0.533,0.154l-1.879,1.185c-0.146,0.092-0.265,0.219-0.347,0.371l-4.805,8.9l-0.801,0.504h-8.095V66.552z" fill="#04CC47"/></g></svg>