<?xml version="1.0" encoding="utf-8"?>
<!-- Generator: Adobe Illustrator 22.0.1, SVG Export Plug-In . SVG Version: 6.00 Build 0)  -->
<svg version="1.1" id="Layer_1" xmlns="http://www.w3.org/2000/svg" xmlns:xlink="http://www.w3.org/1999/xlink" x="0px" y="0px"
	 viewBox="0 0 100 100" style="enable-background:new 0 0 100 100;" xml:space="preserve">
<style type="text/css">
	.st0{fill:#FFFFFF;}
</style>
<g>
	<path class="st0" d="M49.8,4.5c-25.4,0-46,20.6-46,46s20.6,46,46,46c25.4,0,46-20.6,46-46S75.1,4.5,49.8,4.5z M49.8,94.4
		c-24.2,0-44-19.7-44-44c0-24.2,19.7-44,44-44c24.2,0,44,19.7,44,44C93.8,74.7,74,94.4,49.8,94.4z"/>
	<path class="st0" d="M49.8,21c-16.3,0-29.5,13.2-29.5,29.5c0,12.4,7.9,23.6,19.6,27.8l0.3,0.1c0.3,0.1,0.5,0.1,0.8,0.1
		c1.5,0,2.7-1.2,2.7-2.7c0,0,0-0.1,0-0.1c0,0,0,0,0-0.1v-5c0-0.3-0.1-0.6-0.4-0.8c-0.2-0.2-0.5-0.3-0.8-0.2
		c-0.9,0.2-2.2,0.4-3.4,0.4c-1.1,0-1.7-0.2-2-0.3c-1.7-0.8-2.5-1.8-3.4-4c-0.7-1.6-1.7-2.7-2.6-3.4c0.4,0.1,1,0.3,1.4,0.7
		c0.3,0.3,0.6,0.8,0.9,1.2c1.3,1.8,3.1,4.3,6.2,4c1.4-0.1,2.6-0.4,3.5-0.7c0.4-0.1,0.6-0.4,0.7-0.8c0.2-1.3,0.5-2.3,1.2-2.9
		c0.3-0.3,0.3-0.7,0.2-1c-0.1-0.4-0.4-0.6-0.8-0.7c-7.9-1.3-11.9-5.5-11.9-12.5c0-3.3,0.9-6,2.7-8c0.2-0.2,0.3-0.5,0.2-0.8
		c-0.5-2.9-0.4-5.3,0.2-6.2c0.5-0.1,2.4-0.1,6.5,2.7c0.2,0.2,0.5,0.2,0.8,0.2c2-0.5,4.3-0.7,6.8-0.7c0,0,0.1,0,0.1,0l0,0l0.1,0
		c0,0,0,0,0.1,0c2.5,0,4.8,0.3,6.8,0.7c0.3,0.1,0.6,0,0.8-0.2c4.1-2.9,6.1-2.8,6.5-2.7c0.6,0.9,0.7,3.3,0.2,6.2
		c-0.1,0.3,0,0.6,0.2,0.8c1.8,2,2.7,4.7,2.7,8c0,7-4,11.2-11.9,12.5c-0.4,0.1-0.7,0.3-0.8,0.7c-0.1,0.4,0,0.7,0.2,1
		c1.2,1.3,1.2,3.6,1.2,4.3v7.5c0,1.5,1.2,2.7,2.7,2.7c0.2,0,0.4,0,0.6-0.1c0,0,0.2-0.1,0.3-0.1C71.3,74.2,79.3,63,79.3,50.4
		C79.3,34.2,66,21,49.8,21z M58.8,76.4l-0.1,0c-0.4,0.1-0.8-0.2-0.8-0.7v-7.5c0-0.7,0-2.6-0.8-4.3c7.9-1.8,12.1-6.6,12.1-14.1
		c0-3.6-1-6.6-2.8-8.9c0.4-2.7,0.6-6.1-0.9-7.7c-0.1-0.1-0.1-0.1-0.2-0.2c-0.4-0.2-2.6-1.4-8.4,2.6c-2-0.4-4.3-0.7-6.8-0.7v0
		c0,0-0.1,0-0.1,0l-0.1,0c0,0-0.1,0-0.1,0c-2.4,0-4.7,0.2-6.7,0.7c-5.9-4-8-2.8-8.4-2.6c-0.1,0-0.1,0.1-0.2,0.2
		c-1.5,1.5-1.4,4.9-0.9,7.7c-1.9,2.4-2.9,5.4-2.9,8.9c0,7.5,4.2,12.4,12.1,14.1c-0.3,0.6-0.5,1.3-0.6,2c-0.6,0.1-1.4,0.3-2.5,0.4
		c-2,0.2-3.2-1.5-4.4-3.1c-0.4-0.5-0.7-1-1.1-1.4c-0.8-0.9-2-1.4-3.4-1.4c-0.9,0-2,0.2-2.5,0.8c-0.2,0.3-0.3,0.6-0.3,1
		c0.1,0.6,0.6,0.9,1.2,1.3c0.9,0.6,2.1,1.4,2.8,3.1c1.1,2.6,2.2,4,4.4,5c0.7,0.3,1.7,0.5,2.9,0.5c0.9,0,1.8-0.1,2.6-0.2v3.7
		c0,0.1,0,0.1,0,0.2c0,0.4-0.5,0.8-0.9,0.6l-0.3-0.1C29.6,72.5,22.3,62,22.3,50.4C22.3,35.3,34.6,23,49.8,23
		c15.2,0,27.5,12.3,27.5,27.5C77.3,62.2,69.8,72.6,58.8,76.4z"/>
</g>
</svg>
