<?xml version="1.0" encoding="utf-8"?>
<!-- Generator: Adobe Illustrator 22.0.1, SVG Export Plug-In . SVG Version: 6.00 Build 0)  -->
<svg version="1.1" id="Layer_1" xmlns="http://www.w3.org/2000/svg" xmlns:xlink="http://www.w3.org/1999/xlink" x="0px" y="0px"
	 viewBox="0 0 100 100" style="enable-background:new 0 0 100 100;" xml:space="preserve">
<style type="text/css">
	.st0{fill:#FFFFFF;}
</style>
<g>
	<path class="st0" d="M49.2,95.9c25.4,0,46-20.6,46-46s-20.6-46-46-46s-46,20.6-46,46S23.8,95.9,49.2,95.9z M49.2,5.9
		c24.2,0,44,19.7,44,44s-19.7,44-44,44s-44-19.7-44-44S24.9,5.9,49.2,5.9z"/>
	<path class="st0" d="M26.2,64.7c4.4,2.8,9.5,4.3,14.7,4.3c9.7,0,16-4.4,19.5-8.1c5-5.3,7.9-12.6,7.7-19.8c1.7-1.3,3.2-2.9,4.4-4.7
		c0.2-0.4,0.2-0.9-0.1-1.2c-0.3-0.3-0.8-0.5-1.2-0.3c-0.5,0.2-0.9,0.4-1.4,0.6c0.7-0.9,1.2-1.9,1.5-3c0.1-0.4,0-0.8-0.3-1.1
		c-0.3-0.3-0.8-0.3-1.1-0.1c-1.6,0.9-3.3,1.6-5,2c-1.9-1.8-4.4-2.8-7.1-2.8c-3.1,0-6.1,1.4-8,3.9c-1.7,2.1-2.4,4.7-2.2,7.4
		c-6.6-0.7-12.8-4-17.1-9.2c-0.2-0.3-0.5-0.4-0.9-0.4c-0.3,0-0.6,0.2-0.8,0.5c-2.1,3.5-1.8,7.8,0.5,11c-0.2-0.1-0.3-0.2-0.4-0.2
		c-0.3-0.2-0.7-0.2-1,0c-0.3,0.2-0.5,0.5-0.5,0.8c-0.1,3.3,1.6,6.4,4.1,8.3c-0.3,0-0.5,0.1-0.7,0.3c-0.2,0.3-0.3,0.6-0.2,1
		c1.1,3.3,3.7,5.8,6.9,6.7c-3.2,1.9-7.1,2.7-10.9,2.2c-0.5,0-0.9,0.2-1.1,0.7S25.8,64.5,26.2,64.7z M41.1,60.8
		c0.3-0.3,0.5-0.7,0.3-1.1s-0.5-0.7-0.9-0.7c-3-0.1-5.7-1.7-7.1-4.2c1,0,1.9-0.1,2.8-0.4c0.4-0.1,0.8-0.5,0.7-1
		c0-0.5-0.3-0.9-0.8-0.9c-3.3-0.7-5.9-3.4-6.5-6.6c1,0.3,2,0.5,3,0.6c0.5,0,0.8-0.3,1-0.7c0.1-0.4,0-0.9-0.4-1.1
		c-3.2-2.1-4.4-6.2-3.2-9.7c4.8,5.3,11.6,8.5,18.7,8.8c0.3,0,0.6-0.1,0.8-0.4s0.3-0.6,0.2-0.9c-0.6-2.5,0-5,1.6-7
		c1.6-2,3.9-3.1,6.4-3.1c2.3,0,4.5,0.9,6,2.6c0.2,0.3,0.6,0.4,0.9,0.3c1.2-0.2,2.3-0.6,3.4-1c-0.6,0.8-1.4,1.5-2.3,2
		c-0.4,0.2-0.6,0.7-0.4,1.2c0.2,0.4,0.6,0.7,1.1,0.7c0.8-0.1,1.5-0.2,2.2-0.4c-0.7,0.7-1.4,1.3-2.2,1.9c-0.3,0.2-0.4,0.5-0.4,0.9
		c0.3,6.8-2.4,13.9-7.1,18.9c-3.3,3.4-9.1,7.5-18.1,7.5c-3.5,0-6.9-0.7-10.1-2.1C34.5,64.6,38.1,63.1,41.1,60.8z"/>
</g>
</svg>
