<?xml version="1.0" encoding="utf-8"?>
<!-- Generator: Adobe Illustrator 22.0.1, SVG Export Plug-In . SVG Version: 6.00 Build 0)  -->
<svg version="1.1" id="Layer_1" xmlns="http://www.w3.org/2000/svg" xmlns:xlink="http://www.w3.org/1999/xlink" x="0px" y="0px"
	 viewBox="0 0 100 100" style="enable-background:new 0 0 100 100;" xml:space="preserve">
<style type="text/css">
	.st0{fill:#FFFFFF;}
</style>
<g>
	<path class="st0" d="M50.5,4c-25.4,0-46,20.6-46,46s20.6,46,46,46s46-20.6,46-46C96.5,24.6,75.9,4,50.5,4z M50.5,94
		c-24.3,0-44-19.7-44-44c0-24.3,19.7-44,44-44s44,19.7,44,44C94.5,74.3,74.8,94,50.5,94z"/>
	<path class="st0" d="M73,33.4c-1.2-0.9-3-1.2-5.5-1.4c-3.7-0.3-10-0.4-16.8-0.4s-13.1,0.1-16.8,0.4c-2.6,0.2-4.4,0.5-5.5,1.4
		c-0.8,0.6-1.8,1.8-2.2,5.7c-0.6,5.1-0.6,16.7,0,21.8c0.5,3.8,1.4,5,2.2,5.7c1.2,0.9,3,1.2,5.5,1.4c3.7,0.3,10,0.4,16.8,0.4
		s13.1-0.2,16.8-0.4c2.6-0.2,4.4-0.5,5.5-1.4c0.8-0.6,1.8-1.8,2.2-5.7c0.6-5.1,0.6-16.7,0-21.8C74.8,35.3,73.8,34.1,73,33.4z
		 M73.3,60.7C73,63,72.5,64.5,71.8,65c-0.8,0.6-2.7,0.8-4.4,0.9c-3.7,0.2-9.9,0.4-16.7,0.4c-6.8,0-13-0.1-16.7-0.4
		c-1.7-0.1-3.6-0.3-4.4-0.9c-0.7-0.5-1.2-2-1.5-4.3c-0.6-5-0.6-16.4,0-21.4c0.3-2.3,0.8-3.8,1.5-4.3c0.8-0.6,2.7-0.8,4.4-0.9
		c3.7-0.2,9.9-0.4,16.7-0.4c6.8,0,13,0.1,16.7,0.4c1.7,0.1,3.6,0.3,4.4,0.9c0.7,0.6,1.2,2,1.5,4.3C73.9,44.3,73.9,55.7,73.3,60.7z"
		/>
	<path class="st0" d="M59.9,49.1l-14.5-7.6c-0.3-0.2-0.7-0.2-1,0c-0.3,0.2-0.5,0.5-0.5,0.9v15.1c0,0.3,0.2,0.7,0.5,0.9
		c0.2,0.1,0.3,0.1,0.5,0.1c0.2,0,0.3,0,0.5-0.1l14.5-7.6c0.3-0.2,0.5-0.5,0.5-0.9S60.2,49.3,59.9,49.1z M45.9,55.9V44.1L57.2,50
		L45.9,55.9z"/>
</g>
</svg>
