<?xml version="1.0" ?><!DOCTYPE svg  PUBLIC '-//W3C//DTD SVG 1.1//EN'  'http://www.w3.org/Graphics/SVG/1.1/DTD/svg11.dtd'><svg enable-background="new 0 0 100 100" height="100px" id="Layer_1" version="1.1" viewBox="0 0 100 100" width="100px" xml:space="preserve" xmlns="http://www.w3.org/2000/svg" xmlns:xlink="http://www.w3.org/1999/xlink"><g><path d="M50.514,4C25.137,4,4.491,24.646,4.491,50.022c0,25.376,20.646,46.021,46.022,46.021   s46.022-20.645,46.022-46.021C96.536,24.646,75.891,4,50.514,4z M50.514,94.044c-24.274,0-44.022-19.748-44.022-44.021   C6.491,25.749,26.24,6,50.514,6s44.022,19.749,44.022,44.022C94.536,74.296,74.788,94.044,50.514,94.044z" fill="#E04A3F"/><path d="M73.044,33.437c-1.155-0.901-2.97-1.191-5.524-1.366c-3.704-0.252-9.99-0.403-16.815-0.403   s-13.11,0.15-16.813,0.403c-2.554,0.175-4.369,0.465-5.523,1.366c-0.797,0.623-1.771,1.828-2.223,5.661   c-0.6,5.101-0.6,16.733,0,21.836c0.452,3.828,1.425,5.035,2.221,5.657c1.155,0.905,2.971,1.195,5.526,1.37   c3.723,0.251,10.008,0.402,16.812,0.402s13.091-0.15,16.815-0.402c2.554-0.174,4.37-0.464,5.527-1.371   c0.796-0.627,1.769-1.837,2.216-5.656c0.603-5.103,0.603-16.736,0-21.836C74.816,35.274,73.843,34.065,73.044,33.437z    M73.277,60.701c-0.271,2.312-0.765,3.765-1.465,4.316c-0.796,0.624-2.685,0.83-4.427,0.949c-3.682,0.249-9.917,0.397-16.68,0.397   c-6.762,0-12.997-0.148-16.677-0.397c-1.743-0.119-3.632-0.325-4.429-0.949c-0.701-0.548-1.194-2-1.468-4.316   c-0.587-4.994-0.587-16.377,0-21.369c0.273-2.319,0.767-3.772,1.467-4.318c0.797-0.622,2.687-0.828,4.429-0.948   c3.661-0.249,9.896-0.398,16.677-0.398c6.782,0,13.018,0.149,16.678,0.398c1.744,0.12,3.633,0.326,4.428,0.946   c0.702,0.551,1.195,2.004,1.466,4.32C73.868,44.324,73.868,55.707,73.277,60.701z" fill="#E04A3F"/><path d="M59.86,49.128l-14.486-7.552c-0.311-0.162-0.681-0.151-0.981,0.032c-0.299,0.181-0.481,0.505-0.481,0.855   v15.105c0,0.35,0.183,0.674,0.481,0.855c0.159,0.097,0.339,0.145,0.519,0.145c0.159,0,0.317-0.038,0.462-0.113l14.486-7.554   c0.331-0.172,0.538-0.514,0.538-0.887S60.19,49.3,59.86,49.128z M45.911,55.919V44.112l11.323,5.903L45.911,55.919z" fill="#E04A3F"/></g></svg>