<?xml version="1.0" encoding="utf-8"?>
<!-- Generator: Adobe Illustrator 22.0.1, SVG Export Plug-In . SVG Version: 6.00 Build 0)  -->
<svg version="1.1" id="Capa_1" xmlns="http://www.w3.org/2000/svg" xmlns:xlink="http://www.w3.org/1999/xlink" x="0px" y="0px"
	 viewBox="0 0 612 612" style="enable-background:new 0 0 612 612;" xml:space="preserve">
<style type="text/css">
	.st0{fill:#FFFFFF;}
</style>
<g>
	<g>
		<g>
			<path class="st0" d="M292.9,318.9H14.8C6.6,318.9,0,312.2,0,304c0-8.2,6.6-14.8,14.8-14.8h278.1c8.2,0,14.8,6.6,14.8,14.8
				C307.7,312.2,301.1,318.9,292.9,318.9z"/>
			<path class="st0" d="M597.2,318.9H449.6c-8.2,0-14.8-6.6-14.8-14.8c0-8.2,6.6-14.8,14.8-14.8h147.5c8.2,0,14.8,6.6,14.8,14.8
				C612,312.2,605.4,318.9,597.2,318.9z"/>
			<path class="st0" d="M214.5,506.7H14.8c-8.2,0-14.8-6.6-14.8-14.8c0-8.2,6.6-14.8,14.8-14.8h199.7c8.2,0,14.8,6.6,14.8,14.8
				C229.4,500.1,222.7,506.7,214.5,506.7z"/>
			<path class="st0" d="M597.2,506.7H371.3c-8.2,0-14.8-6.6-14.8-14.8c0-8.2,6.6-14.8,14.8-14.8h225.9c8.2,0,14.8,6.6,14.8,14.8
				C612,500.1,605.4,506.7,597.2,506.7z"/>
			<path class="st0" d="M129.4,135H14.8C6.6,135,0,128.3,0,120.1s6.6-14.8,14.8-14.8h114.5c8.2,0,14.8,6.6,14.8,14.8
				S137.6,135,129.4,135z"/>
			<path class="st0" d="M597.2,135H286.1c-8.2,0-14.8-6.6-14.8-14.8s6.6-14.8,14.8-14.8h311.1c8.2,0,14.8,6.6,14.8,14.8
				C612,128.3,605.4,135,597.2,135z"/>
			<path class="st0" d="M175.6,181.2c-33.7,0-61.1-27.4-61.1-61.1c0-33.7,27.4-61.1,61.1-61.1c33.7,0,61.1,27.4,61.1,61.1
				C236.7,153.8,209.3,181.2,175.6,181.2z M175.6,88.7c-17.3,0-31.4,14.1-31.4,31.4c0,17.3,14.1,31.4,31.4,31.4
				c17.3,0,31.4-14.1,31.4-31.4C207.1,102.8,193,88.7,175.6,88.7z"/>
			<path class="st0" d="M257.7,553c-33.7,0-61.1-27.4-61.1-61.1c0-33.7,27.4-61.1,61.1-61.1c33.7,0,61.1,27.4,61.1,61.1
				C318.8,525.6,291.4,553,257.7,553z M257.7,460.5c-17.3,0-31.4,14.1-31.4,31.4c0,17.3,14.1,31.4,31.4,31.4s31.4-14.1,31.4-31.4
				C289.1,474.5,275,460.5,257.7,460.5z"/>
			<path class="st0" d="M339.2,365.1c-33.7,0-61.1-27.4-61.1-61.1c0-33.7,27.4-61.1,61.1-61.1c33.7,0,61.1,27.4,61.1,61.1
				C400.3,337.7,372.9,365.1,339.2,365.1z M339.2,272.6c-17.3,0-31.4,14.1-31.4,31.4c0,17.3,14.1,31.4,31.4,31.4
				s31.4-14.1,31.4-31.4C370.6,286.7,356.5,272.6,339.2,272.6z"/>
		</g>
	</g>
</g>
</svg>
