<?xml version="1.0" encoding="utf-8"?>
<!-- Generator: Adobe Illustrator 22.0.1, SVG Export Plug-In . SVG Version: 6.00 Build 0)  -->
<svg version="1.1" id="logo" xmlns="http://www.w3.org/2000/svg" xmlns:xlink="http://www.w3.org/1999/xlink" x="0px" y="0px"
	 viewBox="0 0 153.3 91.3" style="enable-background:new 0 0 153.3 91.3;" xml:space="preserve">
<style type="text/css">
	.st0{fill:none;}
	.st1{display:none;}
	.st2{display:inline;fill:#E0E0E0;stroke:#231F20;stroke-width:1.25;stroke-miterlimit:10;}
	.st3{font-family:'ALusine';}
	.st4{font-size:46px;}
	.st5{display:inline;fill:none;}
	.st6{display:inline;fill:none;stroke:#6E02F5;stroke-width:1.25;stroke-miterlimit:10;}
	.st7{display:inline;}
	.st8{fill:none;stroke:#6E02F5;stroke-width:1.25;stroke-miterlimit:10;}
	.st9{letter-spacing:-3;}
	.st10{fill:url(#SVGID_1_);stroke:url(#SVGID_2_);stroke-width:0.9676;stroke-miterlimit:10;}
	.st11{fill:url(#SVGID_3_);stroke:url(#SVGID_4_);stroke-width:0.9676;stroke-miterlimit:10;}
	.st12{fill:url(#SVGID_5_);stroke:url(#SVGID_6_);stroke-width:0.9676;stroke-miterlimit:10;}
	.st13{fill:url(#SVGID_7_);stroke:url(#SVGID_8_);stroke-width:0.9676;stroke-miterlimit:10;}
	.st14{fill:url(#SVGID_9_);stroke:url(#SVGID_10_);stroke-width:0.9676;stroke-miterlimit:10;}
	.st15{fill:url(#SVGID_11_);stroke:url(#SVGID_12_);stroke-width:0.9676;stroke-miterlimit:10;}
	.st16{fill:url(#SVGID_13_);stroke:url(#SVGID_14_);stroke-width:0.9676;stroke-miterlimit:10;}
	.st17{fill:url(#SVGID_15_);stroke:url(#SVGID_16_);stroke-width:1.25;stroke-miterlimit:10;}
	.st18{fill:url(#SVGID_17_);stroke:url(#SVGID_18_);stroke-width:1.25;stroke-miterlimit:10;}
	.st19{fill:url(#SVGID_19_);stroke:url(#SVGID_20_);stroke-width:0.9676;stroke-miterlimit:10;}
	.st20{fill:url(#SVGID_21_);stroke:url(#SVGID_22_);stroke-width:0.9676;stroke-miterlimit:10;}
	.st21{fill:url(#SVGID_23_);stroke:url(#SVGID_24_);stroke-width:0.9676;stroke-miterlimit:10;}
	.st22{fill:url(#SVGID_25_);stroke:url(#SVGID_26_);stroke-width:0.9676;stroke-miterlimit:10;}
	.st23{fill:url(#SVGID_27_);stroke:url(#SVGID_28_);stroke-width:0.9676;stroke-miterlimit:10;}
	.st24{fill:url(#SVGID_29_);stroke:url(#SVGID_30_);stroke-width:0.9676;stroke-miterlimit:10;}
	.st25{fill:url(#SVGID_31_);stroke:url(#SVGID_32_);stroke-width:0.9676;stroke-miterlimit:10;}
	.st26{fill:url(#SVGID_33_);stroke:url(#SVGID_34_);stroke-width:0.9676;stroke-miterlimit:10;}
	.st27{fill:url(#SVGID_35_);stroke:url(#SVGID_36_);stroke-width:1.25;stroke-miterlimit:10;}
	.st28{fill:url(#SVGID_37_);stroke:url(#SVGID_38_);stroke-width:1.25;stroke-miterlimit:10;}
	.st29{fill:url(#SVGID_39_);stroke:url(#SVGID_40_);stroke-width:1.25;stroke-miterlimit:10;}
	.st30{fill:url(#SVGID_41_);stroke:url(#SVGID_42_);stroke-width:1.25;stroke-miterlimit:10;}
	.st31{fill:url(#SVGID_43_);stroke:url(#SVGID_44_);stroke-width:1.25;stroke-miterlimit:10;}
	.st32{fill:url(#SVGID_45_);stroke:url(#SVGID_46_);stroke-width:1.25;stroke-miterlimit:10;}
	.st33{fill:url(#SVGID_47_);stroke:url(#SVGID_48_);stroke-width:1.25;stroke-miterlimit:10;}
	.st34{fill:url(#SVGID_49_);stroke:url(#SVGID_50_);stroke-width:1.25;stroke-miterlimit:10;}
	.st35{fill:url(#SVGID_51_);stroke:url(#SVGID_52_);stroke-width:1.25;stroke-miterlimit:10;}
	.st36{fill:url(#SVGID_53_);stroke:url(#SVGID_54_);stroke-width:1.25;stroke-miterlimit:10;}
	.st37{fill:url(#SVGID_55_);stroke:url(#SVGID_56_);stroke-width:1.25;stroke-miterlimit:10;}
	.st38{fill:url(#SVGID_57_);stroke:url(#SVGID_58_);stroke-width:1.25;stroke-miterlimit:10;}
	.st39{fill:url(#SVGID_59_);stroke:url(#SVGID_60_);stroke-width:1.25;stroke-miterlimit:10;}
	.st40{fill:url(#SVGID_61_);stroke:url(#SVGID_62_);stroke-width:1.25;stroke-miterlimit:10;}
	.st41{fill:url(#SVGID_63_);stroke:url(#SVGID_64_);stroke-width:1.25;stroke-miterlimit:10;}
	.st42{fill:url(#SVGID_65_);stroke:url(#SVGID_66_);stroke-width:1.25;stroke-miterlimit:10;}
	.st43{fill:url(#SVGID_67_);stroke:url(#SVGID_68_);stroke-width:1.25;stroke-miterlimit:10;}
	.st44{fill:url(#SVGID_69_);stroke:url(#SVGID_70_);stroke-width:1.25;stroke-miterlimit:10;}
	.st45{fill:url(#SVGID_71_);stroke:url(#SVGID_72_);stroke-width:1.25;stroke-miterlimit:10;}
	.st46{fill:url(#SVGID_73_);stroke:url(#SVGID_74_);stroke-width:1.25;stroke-miterlimit:10;}
	.st47{fill:url(#SVGID_75_);stroke:url(#SVGID_76_);stroke-width:1.25;stroke-miterlimit:10;}
</style>
<rect x="-0.7" y="3.9" class="st0" width="187.7" height="98.5"/>
<text transform="matrix(1 0 0 1 2.1694 35.6009)" class="st1"><tspan x="0" y="0" class="st2 st3 st4">|{atherine</tspan><tspan x="22.9" y="55.2" class="st2 st3 st4">|}illings</tspan></text>
<g id="text-version" class="st1">
	<rect x="26.3" y="58.9" class="st5" width="114" height="40.3"/>
	<text transform="matrix(1 0 0 1 26.3237 90.6009)" class="st6 st3 st4">illings</text>
	<rect x="26.3" y="3.9" class="st5" width="160.2" height="38"/>
	<text transform="matrix(1 0 0 1 26.3237 35.6009)" class="st6 st3 st4">atherine</text>
	<g id="B_placeholder" class="st7">
		<path class="st8" d="M6.1,60.8H8v31.7H6.1V60.8z"/>
		<path class="st8" d="M10.6,77.5c2.5,0.2,3.5,1.4,3.5,3.7v9.3c-0.1,1.2-0.7,1.8-1.9,1.8h-1.8v1.9h3.8c2.5-0.2,3.7-1.4,3.7-3.7V80.4
			c0.1-1.3-0.1-1.9-1.2-1.9h-1.8v-1.8h1.8c1.2-0.1,1.2-0.7,1.2-1.9V64.5c-0.2-2.5-1.4-3.7-3.7-3.7h-3.8v1.8h1.8
			c1.2,0.1,1.9,0.7,1.9,1.9v9.3C14.3,76.3,12.9,77.5,10.6,77.5z"/>
	</g>
	<rect x="3.3" y="3.9" class="st5" width="24.2" height="38"/>
	<text id="_x7C__x7B__K_placeholder" transform="matrix(1 0 0 1 3.3237 35.6009)" class="st6 st3 st4 st9">|{</text>
</g>
<g id="outline-version" class="st1">
	<g id="illings" class="st7">
		<linearGradient id="SVGID_1_" gradientUnits="userSpaceOnUse" x1="51.3174" y1="56.1354" x2="51.3174" y2="80.7052">
			<stop  offset="1.082549e-07" style="stop-color:#6E02F5"/>
			<stop  offset="1" style="stop-color:#FFFFFF"/>
		</linearGradient>
		<linearGradient id="SVGID_2_" gradientUnits="userSpaceOnUse" x1="51.3174" y1="81.189" x2="51.3174" y2="55.6516">
			<stop  offset="1.082549e-07" style="stop-color:#6E02F5"/>
			<stop  offset="0.9748" style="stop-color:#FFFFFF"/>
		</linearGradient>
		<path class="st10" d="M55.7,72h0.7v6.5c0,1.4-0.7,2.1-2.2,2.2h-2.9c-1.9-0.1-2.9-1.1-2.9-2.9V66.3c0-0.4-0.2-0.7-0.7-0.8
			c-0.5,0.1-0.7,0.3-0.7,0.8V72h-0.7v-6.5c0-1.3,0.7-2,2.1-2.1h2.9c1.9,0.1,2.9,1.1,2.9,2.9v11.5c0,0.4,0.2,0.7,0.7,0.7
			c0.5,0,0.8-0.3,0.8-0.7V72z M51.3,61.9c-0.8,0-1.5-0.3-2-0.8c-0.6-0.6-0.8-1.2-0.8-2c0-0.8,0.3-1.5,0.8-2c0.6-0.6,1.2-0.8,2-0.8
			c0.8,0,1.5,0.3,2,0.8c0.6,0.6,0.8,1.2,0.8,2c0,0.8-0.3,1.5-0.8,2C52.8,61.6,52.1,61.9,51.3,61.9z"/>
		<linearGradient id="SVGID_3_" gradientUnits="userSpaceOnUse" x1="60.7089" y1="56.1354" x2="60.7089" y2="80.7052">
			<stop  offset="1.082549e-07" style="stop-color:#6E02F5"/>
			<stop  offset="1" style="stop-color:#FFFFFF"/>
		</linearGradient>
		<linearGradient id="SVGID_4_" gradientUnits="userSpaceOnUse" x1="60.7089" y1="81.189" x2="60.7089" y2="55.6516">
			<stop  offset="1.082549e-07" style="stop-color:#6E02F5"/>
			<stop  offset="0.9748" style="stop-color:#FFFFFF"/>
		</linearGradient>
		<path class="st11" d="M65,72h0.7v6.5c0,1.4-0.7,2.1-2.2,2.2h-2.9c-1.9-0.1-2.9-1.1-2.9-2.9V59c0-0.4-0.2-0.7-0.7-0.7
			c-0.5,0-0.7,0.3-0.7,0.7v13h-0.7V58.3c0-1.3,0.7-2.1,2.1-2.2h2.9c1.9,0.1,2.9,1.1,2.9,2.9v18.8c0,0.4,0.2,0.7,0.7,0.7
			c0.5,0,0.8-0.3,0.8-0.7V72z"/>
		<linearGradient id="SVGID_5_" gradientUnits="userSpaceOnUse" x1="70.1004" y1="56.1354" x2="70.1004" y2="80.7052">
			<stop  offset="1.082549e-07" style="stop-color:#6E02F5"/>
			<stop  offset="1" style="stop-color:#FFFFFF"/>
		</linearGradient>
		<linearGradient id="SVGID_6_" gradientUnits="userSpaceOnUse" x1="70.1004" y1="81.189" x2="70.1004" y2="55.6516">
			<stop  offset="1.082549e-07" style="stop-color:#6E02F5"/>
			<stop  offset="0.9748" style="stop-color:#FFFFFF"/>
		</linearGradient>
		<path class="st12" d="M74.4,72h0.7v6.5c0,1.4-0.7,2.1-2.2,2.2h-2.9c-1.9-0.1-2.9-1.1-2.9-2.9V59c0-0.4-0.2-0.7-0.7-0.7
			c-0.5,0-0.7,0.3-0.7,0.7v13H65V58.3c0-1.3,0.7-2.1,2.1-2.2h2.9C72,56.3,73,57.2,73,59v18.8c0,0.4,0.2,0.7,0.7,0.7
			c0.5,0,0.8-0.3,0.8-0.7V72z"/>
		<linearGradient id="SVGID_7_" gradientUnits="userSpaceOnUse" x1="79.492" y1="56.1354" x2="79.492" y2="80.7052">
			<stop  offset="1.082549e-07" style="stop-color:#6E02F5"/>
			<stop  offset="1" style="stop-color:#FFFFFF"/>
		</linearGradient>
		<linearGradient id="SVGID_8_" gradientUnits="userSpaceOnUse" x1="79.492" y1="81.189" x2="79.492" y2="55.6516">
			<stop  offset="1.082549e-07" style="stop-color:#6E02F5"/>
			<stop  offset="0.9748" style="stop-color:#FFFFFF"/>
		</linearGradient>
		<path class="st13" d="M83.8,72h0.7v6.5c0,1.4-0.7,2.1-2.2,2.2h-2.9c-1.9-0.1-2.9-1.1-2.9-2.9V66.3c0-0.4-0.2-0.7-0.7-0.8
			c-0.5,0.1-0.7,0.3-0.7,0.8V72h-0.7v-6.5c0-1.3,0.7-2,2.1-2.1h2.9c1.9,0.1,2.9,1.1,2.9,2.9v11.5c0,0.4,0.2,0.7,0.7,0.7
			c0.5,0,0.8-0.3,0.8-0.7V72z M79.5,61.9c-0.8,0-1.5-0.3-2-0.8c-0.6-0.6-0.8-1.2-0.8-2c0-0.8,0.3-1.5,0.8-2c0.6-0.6,1.2-0.8,2-0.8
			c0.8,0,1.5,0.3,2,0.8c0.6,0.6,0.8,1.2,0.8,2c0,0.8-0.3,1.5-0.8,2C81,61.6,80.3,61.9,79.5,61.9z"/>
		<linearGradient id="SVGID_9_" gradientUnits="userSpaceOnUse" x1="93.2232" y1="63.3906" x2="93.2232" y2="80.7052">
			<stop  offset="1.082549e-07" style="stop-color:#6E02F5"/>
			<stop  offset="1" style="stop-color:#FFFFFF"/>
		</linearGradient>
		<linearGradient id="SVGID_10_" gradientUnits="userSpaceOnUse" x1="93.2232" y1="81.189" x2="93.2232" y2="62.9051">
			<stop  offset="1.082549e-07" style="stop-color:#6E02F5"/>
			<stop  offset="0.9748" style="stop-color:#FFFFFF"/>
		</linearGradient>
		<path class="st14" d="M101.9,72h0.7v6.5c0,1.4-0.7,2.1-2.2,2.2h-2.9c-1.9-0.1-2.9-1.1-2.9-2.9v-8.7c0-0.9-0.5-1.4-1.4-1.4
			c-1,0.1-1.5,0.5-1.5,1.4v11.6H86V66.3c0-0.4-0.2-0.7-0.7-0.8c-0.5,0.1-0.7,0.3-0.7,0.8V72h-0.7v-6.5c0-1.3,0.7-2,2.1-2.1h2.9
			c1.9,0.1,2.9,1.1,2.9,2.9v2.1c0-3.1,1.5-4.8,4.4-5c2.9,0.2,4.3,1.9,4.3,5v9.4c0,0.4,0.2,0.7,0.7,0.7c0.5,0,0.7-0.3,0.7-0.7V72z"/>
		<linearGradient id="SVGID_11_" gradientUnits="userSpaceOnUse" x1="111.2942" y1="63.3906" x2="111.2942" y2="87.9159">
			<stop  offset="1.082549e-07" style="stop-color:#6E02F5"/>
			<stop  offset="1" style="stop-color:#FFFFFF"/>
		</linearGradient>
		<linearGradient id="SVGID_12_" gradientUnits="userSpaceOnUse" x1="111.2942" y1="88.3997" x2="111.2942" y2="62.9068">
			<stop  offset="1.082549e-07" style="stop-color:#6E02F5"/>
			<stop  offset="0.9748" style="stop-color:#FFFFFF"/>
		</linearGradient>
		<path class="st15" d="M120,72h0.7v8.7c0,0.9-0.5,1.4-1.5,1.4h-0.7c0,2.4-1.1,4.1-3.2,5.1c-0.9,0.4-2,0.7-3.2,0.7h-4.3
			c-1.4,0-2.1-0.7-2.2-2.1v-2.2c0-1.3,0.7-2.1,2.2-2.2h5v-5.8c0,3.1-1.4,4.8-4.3,5.1c-2.9-0.2-4.4-1.9-4.4-5.1v-9.3
			c0-0.4-0.2-0.7-0.7-0.8c-0.5,0.1-0.7,0.3-0.7,0.8V72h-0.7v-5.7c0-0.9,0.5-1.4,1.4-1.5c0.9,0,1.4,0.5,1.4,1.5v1.1
			c1.2-2.7,3.3-4,6.5-4c1.4,0.1,2.6,0.4,3.6,0.9c2.4,1.2,3.6,3.3,3.6,6.3v10.8h0.7c0.5,0,0.7-0.3,0.7-0.7V72z M112.7,82.1h-4.3
			c-0.4,0-0.7,0.3-0.7,0.8c0,0.5,0.3,0.7,0.7,0.7h2.9C112.2,83.5,112.7,83,112.7,82.1z M112.7,74.9v-5.8c0-0.9-0.5-1.4-1.4-1.4
			c-1,0.1-1.5,0.5-1.5,1.4v5.8c0,0.9,0.5,1.4,1.5,1.5C112.2,76.3,112.7,75.8,112.7,74.9z"/>
		<linearGradient id="SVGID_13_" gradientUnits="userSpaceOnUse" x1="126.8282" y1="63.3906" x2="126.8282" y2="80.7052">
			<stop  offset="1.082549e-07" style="stop-color:#6E02F5"/>
			<stop  offset="1" style="stop-color:#FFFFFF"/>
		</linearGradient>
		<linearGradient id="SVGID_14_" gradientUnits="userSpaceOnUse" x1="126.8282" y1="81.189" x2="126.8282" y2="62.9068">
			<stop  offset="1.082549e-07" style="stop-color:#6E02F5"/>
			<stop  offset="0.9748" style="stop-color:#FFFFFF"/>
		</linearGradient>
		<path class="st16" d="M133,72h0.7v3.6c0,0.9-0.5,1.4-1.4,1.5h-0.1c-0.6,2.4-2.4,3.6-5.7,3.6h-2.9c-1.3,0-2.1-0.7-2.2-2.2
			c0.1-1.4,0.8-2.1,2.2-2.1h2.9c0-0.8-0.4-1.5-1.3-2.3c-1.4-1.2-2.2-1.9-2.4-2.2c-0.9-1.1-1.3-2.5-1.3-4.2c-0.4,0-0.7,0.2-0.7,0.7
			V72H120v-3.6c0-0.9,0.5-1.4,1.4-1.4h0.1c0.6-2.4,2.5-3.6,5.7-3.6h2.9c1.3,0,2.1,0.7,2.2,2.1c-0.1,1.5-0.8,2.2-2.2,2.2h-2.9
			c0,0.7,0.4,1.5,1.3,2.2c1.4,1.2,2.2,1.9,2.4,2.3c0.9,1.1,1.3,2.5,1.3,4.2c0.4,0,0.7-0.3,0.7-0.8V72z M125,78.5
			c0.8,0,1.2-0.5,1.4-1.4h-2.2c-0.5,0-0.7,0.2-0.7,0.7c0,0.5,0.3,0.7,0.7,0.7H125z M128.6,65.5c-0.7,0-1.2,0.5-1.4,1.5h2.2
			c0.5,0,0.7-0.2,0.7-0.7c0-0.5-0.3-0.8-0.7-0.8H128.6z"/>
	</g>
	<g id="B_placeholder_1_" class="st7">
		<linearGradient id="SVGID_15_" gradientUnits="userSpaceOnUse" x1="30.0613" y1="48.7586" x2="30.0613" y2="80.4408">
			<stop  offset="1.082549e-07" style="stop-color:#6E02F5"/>
			<stop  offset="1" style="stop-color:#FFFFFF"/>
		</linearGradient>
		<linearGradient id="SVGID_16_" gradientUnits="userSpaceOnUse" x1="30.0613" y1="81.0658" x2="30.0613" y2="48.1336">
			<stop  offset="1.082549e-07" style="stop-color:#6E02F5"/>
			<stop  offset="0.9748" style="stop-color:#FFFFFF"/>
		</linearGradient>
		<path class="st17" d="M29.1,48.8H31v31.7h-1.8V48.8z"/>
		<linearGradient id="SVGID_17_" gradientUnits="userSpaceOnUse" x1="37.1925" y1="48.7586" x2="37.1925" y2="82.3382">
			<stop  offset="1.082549e-07" style="stop-color:#6E02F5"/>
			<stop  offset="1" style="stop-color:#FFFFFF"/>
		</linearGradient>
		<linearGradient id="SVGID_18_" gradientUnits="userSpaceOnUse" x1="37.1925" y1="82.9632" x2="37.1925" y2="48.1336">
			<stop  offset="1.082549e-07" style="stop-color:#6E02F5"/>
			<stop  offset="0.9748" style="stop-color:#FFFFFF"/>
		</linearGradient>
		<path class="st18" d="M33.6,65.5c2.5,0.2,3.5,1.4,3.5,3.7v9.3c-0.1,1.2-0.7,1.8-1.9,1.8h-1.8v1.9h3.8c2.5-0.2,3.7-1.4,3.7-3.7
			V68.4c0.1-1.3-0.1-1.9-1.2-1.9h-1.8v-1.8h1.8c1.2-0.1,1.2-0.7,1.2-1.9V52.5c-0.2-2.5-1.4-3.7-3.7-3.7h-3.8v1.8h1.8
			c1.2,0.1,1.9,0.7,1.9,1.9v9.3C37.3,64.3,35.9,65.5,33.6,65.5z"/>
	</g>
	<g id="atherine" class="st7">
		<linearGradient id="SVGID_19_" gradientUnits="userSpaceOnUse" x1="34.853" y1="19.4219" x2="34.853" y2="36.7365">
			<stop  offset="1.082549e-07" style="stop-color:#6E02F5"/>
			<stop  offset="1" style="stop-color:#FFFFFF"/>
		</linearGradient>
		<linearGradient id="SVGID_20_" gradientUnits="userSpaceOnUse" x1="34.853" y1="37.2203" x2="34.853" y2="18.9381">
			<stop  offset="1.082549e-07" style="stop-color:#6E02F5"/>
			<stop  offset="0.9748" style="stop-color:#FFFFFF"/>
		</linearGradient>
		<path class="st19" d="M34.9,23.7h-8.7v4.3h-0.7v-6.5c0.1-1.4,0.8-2.1,2.1-2.1h8c1.2,0.1,2.3,0.4,3.2,0.8c2.2,1.1,3.2,3,3.2,5.7
			v7.9c0,0.4,0.2,0.7,0.7,0.7c0.5,0,0.7-0.3,0.7-0.7v-5.8h0.7v6.5c0,1.4-0.7,2.1-2.2,2.2h-2.9c-1.9-0.1-2.9-1.1-2.9-2.9v-2.2
			c0,3.1-1.4,4.8-4.3,5.1c-2.7,0-4.2-1.7-4.4-5.1c0.2-3.4,1.7-5,4.4-5h4.3v-1.5C36.3,24.3,35.8,23.8,34.9,23.7z M36.3,31v-1.4h-1.4
			c-0.4,0-0.8,0.1-1,0.4c-0.3,0.3-0.4,0.6-0.4,1c0,0.4,0.1,0.8,0.4,1c0.3,0.3,0.6,0.4,1,0.4c0.4,0,0.7-0.1,1-0.4
			C36.1,31.7,36.3,31.4,36.3,31z"/>
		<linearGradient id="SVGID_21_" gradientUnits="userSpaceOnUse" x1="49.6747" y1="13.6359" x2="49.6747" y2="36.7365">
			<stop  offset="1.082549e-07" style="stop-color:#6E02F5"/>
			<stop  offset="1" style="stop-color:#FFFFFF"/>
		</linearGradient>
		<linearGradient id="SVGID_22_" gradientUnits="userSpaceOnUse" x1="49.6747" y1="37.2203" x2="49.6747" y2="13.152">
			<stop  offset="1.082549e-07" style="stop-color:#6E02F5"/>
			<stop  offset="0.9748" style="stop-color:#FFFFFF"/>
		</linearGradient>
		<path class="st20" d="M55.1,28.1h0.7v6.5c0,1.4-0.7,2.1-2.2,2.2h-5.1c-1.9-0.1-2.9-1.1-2.9-2.9V23.7h-1.4v4.3h-0.7v-7.2h2.1v-7.2
			h5.8v7.2h2.2v2.9h-2.2v8.7h2.9c0.5,0,0.7-0.3,0.7-0.8V28.1z"/>
		<linearGradient id="SVGID_23_" gradientUnits="userSpaceOnUse" x1="64.4964" y1="12.1667" x2="64.4964" y2="36.7365">
			<stop  offset="1.082549e-07" style="stop-color:#6E02F5"/>
			<stop  offset="1" style="stop-color:#FFFFFF"/>
		</linearGradient>
		<linearGradient id="SVGID_24_" gradientUnits="userSpaceOnUse" x1="64.4964" y1="37.2203" x2="64.4964" y2="11.6829">
			<stop  offset="1.082549e-07" style="stop-color:#6E02F5"/>
			<stop  offset="0.9748" style="stop-color:#FFFFFF"/>
		</linearGradient>
		<path class="st21" d="M57.2,12.2h2.9c1.9,0.1,2.9,1.1,2.9,2.9v9.4c0-3.1,1.5-4.8,4.4-5c2.9,0.2,4.3,1.9,4.3,5v9.4
			c0,0.4,0.2,0.7,0.7,0.7c0.5,0,0.7-0.3,0.7-0.7v-5.8h0.7v6.5c0,1.4-0.7,2.1-2.2,2.2h-2.9c-1.9-0.1-2.9-1.1-2.9-2.9v-8.7
			c0-0.9-0.5-1.4-1.4-1.4c-1,0.1-1.5,0.5-1.5,1.4v11.6h-5.8V15.1c0-0.4-0.2-0.7-0.7-0.7c-0.5,0-0.7,0.3-0.7,0.7v13h-0.7V14.3
			C55.1,13,55.8,12.3,57.2,12.2z"/>
		<linearGradient id="SVGID_25_" gradientUnits="userSpaceOnUse" x1="81.8329" y1="19.4219" x2="81.8329" y2="36.7365">
			<stop  offset="1.082549e-07" style="stop-color:#6E02F5"/>
			<stop  offset="1" style="stop-color:#FFFFFF"/>
		</linearGradient>
		<linearGradient id="SVGID_26_" gradientUnits="userSpaceOnUse" x1="81.8329" y1="37.2203" x2="81.8329" y2="18.9381">
			<stop  offset="1.082549e-07" style="stop-color:#6E02F5"/>
			<stop  offset="0.9748" style="stop-color:#FFFFFF"/>
		</linearGradient>
		<path class="st22" d="M82.6,32.4h7.2v-4.4h0.7v6.5c-0.1,1.5-0.8,2.2-2.2,2.2h-6.5c-1.2-0.1-2.3-0.4-3.2-0.8
			c-2.2-1.1-3.2-3-3.2-5.7v-7.9c0-0.4-0.2-0.7-0.7-0.8c-0.5,0.1-0.7,0.3-0.7,0.8v5.7h-0.7v-5.7c0-0.9,0.5-1.4,1.4-1.5
			c0.9,0,1.4,0.5,1.4,1.5v0.5c1-2.3,3-3.4,5.8-3.4c1.3,0.1,2.4,0.4,3.3,0.8c2.2,1.1,3.3,3,3.3,5.7v3.6h-7.2V31
			C81.2,31.9,81.7,32.4,82.6,32.4z M81.1,25.2v1.5H84v-1.5c0-0.9-0.5-1.4-1.4-1.4C81.6,23.8,81.1,24.3,81.1,25.2z"/>
		<linearGradient id="SVGID_27_" gradientUnits="userSpaceOnUse" x1="96.9886" y1="19.4219" x2="96.9886" y2="36.7365">
			<stop  offset="1.082549e-07" style="stop-color:#6E02F5"/>
			<stop  offset="1" style="stop-color:#FFFFFF"/>
		</linearGradient>
		<linearGradient id="SVGID_28_" gradientUnits="userSpaceOnUse" x1="96.9886" y1="37.2203" x2="96.9886" y2="18.9381">
			<stop  offset="1.082549e-07" style="stop-color:#6E02F5"/>
			<stop  offset="0.9748" style="stop-color:#FFFFFF"/>
		</linearGradient>
		<path class="st23" d="M102.1,19.4v10.1c0,0.4,0.2,0.7,0.7,0.7c0.5,0,0.7-0.3,0.7-0.7v-1.5h0.7v1.5c0,0.9-0.5,1.4-1.4,1.4
			c-1-0.1-1.4-0.5-1.4-1.4v-0.7l-3.6-2.2v10.1h-5.8V22.3c0-0.4-0.2-0.7-0.7-0.8c-0.5,0.1-0.7,0.3-0.7,0.8v5.7h-0.7v-6.5
			c0-1.3,0.7-2,2.1-2.1h5.8v4.3l3.6-4.3H102.1z"/>
		<linearGradient id="SVGID_29_" gradientUnits="userSpaceOnUse" x1="108.5389" y1="12.1667" x2="108.5389" y2="36.7365">
			<stop  offset="1.082549e-07" style="stop-color:#6E02F5"/>
			<stop  offset="1" style="stop-color:#FFFFFF"/>
		</linearGradient>
		<linearGradient id="SVGID_30_" gradientUnits="userSpaceOnUse" x1="108.5389" y1="37.2203" x2="108.5389" y2="11.6829">
			<stop  offset="1.082549e-07" style="stop-color:#6E02F5"/>
			<stop  offset="0.9748" style="stop-color:#FFFFFF"/>
		</linearGradient>
		<path class="st24" d="M112.9,28.1h0.7v6.5c0,1.4-0.7,2.1-2.2,2.2h-2.9c-1.9-0.1-2.9-1.1-2.9-2.9V22.3c0-0.4-0.2-0.7-0.7-0.8
			c-0.5,0.1-0.7,0.3-0.7,0.8v5.7h-0.7v-6.5c0-1.3,0.7-2,2.1-2.1h2.9c1.9,0.1,2.9,1.1,2.9,2.9v11.5c0,0.4,0.2,0.7,0.7,0.7
			c0.5,0,0.8-0.3,0.8-0.7V28.1z M108.5,18c-0.8,0-1.5-0.3-2-0.8c-0.6-0.6-0.8-1.2-0.8-2s0.3-1.5,0.8-2c0.6-0.6,1.2-0.8,2-0.8
			c0.8,0,1.5,0.3,2,0.8c0.6,0.6,0.8,1.2,0.8,2s-0.3,1.5-0.8,2C110,17.7,109.3,18,108.5,18z"/>
		<linearGradient id="SVGID_31_" gradientUnits="userSpaceOnUse" x1="122.2702" y1="19.4219" x2="122.2702" y2="36.7365">
			<stop  offset="1.082549e-07" style="stop-color:#6E02F5"/>
			<stop  offset="1" style="stop-color:#FFFFFF"/>
		</linearGradient>
		<linearGradient id="SVGID_32_" gradientUnits="userSpaceOnUse" x1="122.2702" y1="37.2203" x2="122.2702" y2="18.9364">
			<stop  offset="1.082549e-07" style="stop-color:#6E02F5"/>
			<stop  offset="0.9748" style="stop-color:#FFFFFF"/>
		</linearGradient>
		<path class="st25" d="M130.9,28.1h0.7v6.5c0,1.4-0.7,2.1-2.2,2.2h-2.9c-1.9-0.1-2.9-1.1-2.9-2.9v-8.7c0-0.9-0.5-1.4-1.4-1.4
			c-1,0.1-1.5,0.5-1.5,1.4v11.6H115V22.3c0-0.4-0.2-0.7-0.7-0.8c-0.5,0.1-0.7,0.3-0.7,0.8v5.7h-0.7v-6.5c0-1.3,0.7-2,2.1-2.1h2.9
			c1.9,0.1,2.9,1.1,2.9,2.9v2.1c0-3.1,1.5-4.8,4.4-5c2.9,0.2,4.3,1.9,4.3,5v9.4c0,0.4,0.2,0.7,0.7,0.7c0.5,0,0.7-0.3,0.7-0.7V28.1z"
			/>
		<linearGradient id="SVGID_33_" gradientUnits="userSpaceOnUse" x1="139.6066" y1="19.4219" x2="139.6066" y2="36.7365">
			<stop  offset="1.082549e-07" style="stop-color:#6E02F5"/>
			<stop  offset="1" style="stop-color:#FFFFFF"/>
		</linearGradient>
		<linearGradient id="SVGID_34_" gradientUnits="userSpaceOnUse" x1="139.6066" y1="37.2203" x2="139.6066" y2="18.9381">
			<stop  offset="1.082549e-07" style="stop-color:#6E02F5"/>
			<stop  offset="0.9748" style="stop-color:#FFFFFF"/>
		</linearGradient>
		<path class="st26" d="M140.3,32.4h7.2v-4.4h0.7v6.5c-0.1,1.5-0.8,2.2-2.2,2.2h-6.5c-1.2-0.1-2.3-0.4-3.2-0.8
			c-2.2-1.1-3.2-3-3.2-5.7v-7.9c0-0.4-0.2-0.7-0.7-0.8c-0.5,0.1-0.7,0.3-0.7,0.8v5.7h-0.7v-5.7c0-0.9,0.5-1.4,1.4-1.5
			c0.9,0,1.4,0.5,1.4,1.5v0.5c1-2.3,3-3.4,5.8-3.4c1.3,0.1,2.4,0.4,3.3,0.8c2.2,1.1,3.3,3,3.3,5.7v3.6h-7.2V31
			C139,31.9,139.5,32.4,140.3,32.4z M138.9,25.2v1.5h2.9v-1.5c0-0.9-0.5-1.4-1.4-1.4C139.4,23.8,138.9,24.3,138.9,25.2z"/>
	</g>
	<g id="K-placeholder" class="st7">
		<linearGradient id="SVGID_35_" gradientUnits="userSpaceOnUse" x1="7.0613" y1="5.7586" x2="7.0613" y2="37.4408">
			<stop  offset="1.082549e-07" style="stop-color:#6E02F5"/>
			<stop  offset="1" style="stop-color:#FFFFFF"/>
		</linearGradient>
		<linearGradient id="SVGID_36_" gradientUnits="userSpaceOnUse" x1="7.0613" y1="38.0658" x2="7.0613" y2="5.1336">
			<stop  offset="1.082549e-07" style="stop-color:#6E02F5"/>
			<stop  offset="0.9748" style="stop-color:#FFFFFF"/>
		</linearGradient>
		<path class="st27" d="M6.1,5.8H8v31.7H6.1V5.8z"/>
		<linearGradient id="SVGID_37_" gradientUnits="userSpaceOnUse" x1="16.1572" y1="5.7586" x2="16.1572" y2="39.3382">
			<stop  offset="1.082549e-07" style="stop-color:#6E02F5"/>
			<stop  offset="1" style="stop-color:#FFFFFF"/>
		</linearGradient>
		<linearGradient id="SVGID_38_" gradientUnits="userSpaceOnUse" x1="16.1572" y1="39.9632" x2="16.1572" y2="5.1336">
			<stop  offset="1.082549e-07" style="stop-color:#6E02F5"/>
			<stop  offset="0.9748" style="stop-color:#FFFFFF"/>
		</linearGradient>
		<path class="st28" d="M17.9,18.8c-0.2,2.5-1.4,3.7-3.7,3.7c2.5,0.2,3.7,1.4,3.7,3.7v9.3c0.1,1.2,0.8,1.8,1.9,1.8h1.9v1.9H18
			c-2.5-0.2-3.7-1.4-3.7-3.7V25.4c-0.1-1.3-0.7-1.9-1.9-1.9h-1.8v-1.8h1.8c1.3-0.1,1.9-0.7,1.9-1.9V9.5C14.5,7,15.7,5.8,18,5.8h3.7
			v1.8h-1.9c-1.3,0.1-1.9,0.7-1.9,1.9V18.8z"/>
	</g>
</g>
<g id="outline-version_4_">
	
		<image style="overflow:visible;" width="898" height="648" xlink:href="29050C14.png"  transform="matrix(0.24 0 0 0.24 -30.6 -30.8867)">
	</image>
</g>
<g id="outline-version_1_" class="st1">
	
		<image style="display:inline;overflow:visible;" width="1049" height="707" xlink:href="29050C15.png"  transform="matrix(0.24 0 0 0.24 -30.6 -32.8067)">
	</image>
</g>
<g id="outline-version_2_" class="st1">
	<g id="illings_2_" class="st7">
		<linearGradient id="SVGID_39_" gradientUnits="userSpaceOnUse" x1="54.9875" y1="58.8607" x2="54.9875" y2="90.6009">
			<stop  offset="1.082549e-07" style="stop-color:#6E02F5"/>
			<stop  offset="1" style="stop-color:#23014D"/>
		</linearGradient>
		<linearGradient id="SVGID_40_" gradientUnits="userSpaceOnUse" x1="54.9875" y1="91.2259" x2="54.9875" y2="58.2357">
			<stop  offset="1.082549e-07" style="stop-color:#6E02F5"/>
			<stop  offset="0.9748" style="stop-color:#23014D"/>
		</linearGradient>
		<path class="st29" d="M60.6,79.4h0.9v8.4c0,1.8-0.9,2.7-2.8,2.8H55c-2.5-0.2-3.7-1.4-3.7-3.7V72c0-0.6-0.3-0.9-0.9-1
			c-0.6,0.1-0.9,0.4-0.9,1v7.4h-0.9V71c0-1.7,0.9-2.6,2.8-2.8H55c2.5,0.2,3.7,1.4,3.7,3.7v14.9c0,0.6,0.3,0.9,0.9,0.9
			c0.7,0,1-0.3,1-0.9V79.4z M55,66.3c-1,0-1.9-0.4-2.6-1.1c-0.7-0.7-1.1-1.6-1.1-2.6s0.4-1.9,1.1-2.6c0.7-0.7,1.6-1.1,2.6-1.1
			c1,0,1.9,0.4,2.6,1.1c0.7,0.7,1.1,1.6,1.1,2.6s-0.4,1.9-1.1,2.6C56.9,66,56,66.3,55,66.3z"/>
		<linearGradient id="SVGID_41_" gradientUnits="userSpaceOnUse" x1="67.1199" y1="58.8607" x2="67.1199" y2="90.6009">
			<stop  offset="1.082549e-07" style="stop-color:#6E02F5"/>
			<stop  offset="1" style="stop-color:#23014D"/>
		</linearGradient>
		<linearGradient id="SVGID_42_" gradientUnits="userSpaceOnUse" x1="67.1199" y1="91.2259" x2="67.1199" y2="58.2357">
			<stop  offset="1.082549e-07" style="stop-color:#6E02F5"/>
			<stop  offset="0.9748" style="stop-color:#23014D"/>
		</linearGradient>
		<path class="st30" d="M72.7,79.4h0.9v8.4c0,1.8-0.9,2.7-2.8,2.8h-3.7c-2.5-0.2-3.7-1.4-3.7-3.7V62.6c0-0.6-0.3-0.9-0.9-0.9
			c-0.6,0-0.9,0.3-0.9,0.9v16.8h-0.9V61.7c0-1.7,0.9-2.7,2.8-2.8h3.7c2.5,0.2,3.7,1.4,3.7,3.7v24.3c0,0.6,0.3,0.9,0.9,0.9
			c0.7,0,1-0.3,1-0.9V79.4z"/>
		<linearGradient id="SVGID_43_" gradientUnits="userSpaceOnUse" x1="79.2522" y1="58.8607" x2="79.2522" y2="90.6009">
			<stop  offset="1.082549e-07" style="stop-color:#6E02F5"/>
			<stop  offset="1" style="stop-color:#23014D"/>
		</linearGradient>
		<linearGradient id="SVGID_44_" gradientUnits="userSpaceOnUse" x1="79.2522" y1="91.2259" x2="79.2522" y2="58.2357">
			<stop  offset="1.082549e-07" style="stop-color:#6E02F5"/>
			<stop  offset="0.9748" style="stop-color:#23014D"/>
		</linearGradient>
		<path class="st31" d="M84.9,79.4h0.9v8.4c0,1.8-0.9,2.7-2.8,2.8h-3.7c-2.5-0.2-3.7-1.4-3.7-3.7V62.6c0-0.6-0.3-0.9-0.9-0.9
			c-0.6,0-0.9,0.3-0.9,0.9v16.8h-0.9V61.7c0-1.7,0.9-2.7,2.8-2.8h3.7c2.5,0.2,3.7,1.4,3.7,3.7v24.3c0,0.6,0.3,0.9,0.9,0.9
			c0.7,0,1-0.3,1-0.9V79.4z"/>
		<linearGradient id="SVGID_45_" gradientUnits="userSpaceOnUse" x1="91.3845" y1="58.8607" x2="91.3845" y2="90.6009">
			<stop  offset="1.082549e-07" style="stop-color:#6E02F5"/>
			<stop  offset="1" style="stop-color:#23014D"/>
		</linearGradient>
		<linearGradient id="SVGID_46_" gradientUnits="userSpaceOnUse" x1="91.3845" y1="91.2259" x2="91.3845" y2="58.2357">
			<stop  offset="1.082549e-07" style="stop-color:#6E02F5"/>
			<stop  offset="0.9748" style="stop-color:#23014D"/>
		</linearGradient>
		<path class="st32" d="M97,79.4h0.9v8.4c0,1.8-0.9,2.7-2.8,2.8h-3.7c-2.5-0.2-3.7-1.4-3.7-3.7V72c0-0.6-0.3-0.9-0.9-1
			c-0.6,0.1-0.9,0.4-0.9,1v7.4h-0.9V71c0-1.7,0.9-2.6,2.8-2.8h3.7c2.5,0.2,3.7,1.4,3.7,3.7v14.9c0,0.6,0.3,0.9,0.9,0.9
			c0.7,0,1-0.3,1-0.9V79.4z M91.4,66.3c-1,0-1.9-0.4-2.6-1.1c-0.7-0.7-1.1-1.6-1.1-2.6s0.4-1.9,1.1-2.6c0.7-0.7,1.6-1.1,2.6-1.1
			c1,0,1.9,0.4,2.6,1.1c0.7,0.7,1.1,1.6,1.1,2.6s-0.4,1.9-1.1,2.6C93.3,66,92.4,66.3,91.4,66.3z"/>
		<linearGradient id="SVGID_47_" gradientUnits="userSpaceOnUse" x1="109.123" y1="68.2332" x2="109.123" y2="90.6009">
			<stop  offset="1.082549e-07" style="stop-color:#6E02F5"/>
			<stop  offset="1" style="stop-color:#23014D"/>
		</linearGradient>
		<linearGradient id="SVGID_48_" gradientUnits="userSpaceOnUse" x1="109.123" y1="91.2259" x2="109.123" y2="67.6061">
			<stop  offset="1.082549e-07" style="stop-color:#6E02F5"/>
			<stop  offset="0.9748" style="stop-color:#23014D"/>
		</linearGradient>
		<path class="st33" d="M120.3,79.4h0.9v8.4c0,1.8-0.9,2.7-2.8,2.8h-3.7c-2.5-0.2-3.7-1.4-3.7-3.7V75.7c0-1.1-0.6-1.8-1.8-1.8
			c-1.3,0.1-1.9,0.7-1.9,1.8v15h-7.5V72c0-0.6-0.3-0.9-0.9-1c-0.6,0.1-0.9,0.4-0.9,1v7.4H97V71c0-1.7,0.9-2.6,2.8-2.8h3.7
			c2.5,0.2,3.7,1.4,3.7,3.7v2.8c0-4,1.9-6.2,5.6-6.5c3.7,0.3,5.6,2.5,5.6,6.5v12.1c0,0.6,0.3,0.9,0.9,0.9c0.6,0,0.9-0.3,0.9-0.9
			V79.4z"/>
		<linearGradient id="SVGID_49_" gradientUnits="userSpaceOnUse" x1="132.4678" y1="68.2332" x2="132.4678" y2="99.9159">
			<stop  offset="1.082549e-07" style="stop-color:#6E02F5"/>
			<stop  offset="1" style="stop-color:#23014D"/>
		</linearGradient>
		<linearGradient id="SVGID_50_" gradientUnits="userSpaceOnUse" x1="132.4678" y1="100.5409" x2="132.4678" y2="67.6082">
			<stop  offset="1.082549e-07" style="stop-color:#6E02F5"/>
			<stop  offset="0.9748" style="stop-color:#23014D"/>
		</linearGradient>
		<path class="st34" d="M143.7,79.4h0.9v11.2c0,1.1-0.6,1.8-1.9,1.8h-0.9c0,3.1-1.4,5.3-4.2,6.6c-1.2,0.5-2.6,0.8-4.2,0.9h-5.6
			c-1.8,0-2.7-0.9-2.8-2.8v-2.8c0-1.7,0.9-2.7,2.8-2.8h6.5V84c0,4.1-1.9,6.2-5.6,6.6c-3.8-0.3-5.6-2.5-5.6-6.6V72
			c0-0.6-0.3-0.9-0.9-1c-0.6,0.1-0.9,0.4-0.9,1v7.4h-0.9V72c0-1.2,0.6-1.8,1.8-1.9c1.1,0,1.8,0.6,1.9,1.9v1.4
			c1.5-3.5,4.3-5.2,8.4-5.2c1.8,0.1,3.4,0.5,4.7,1.2c3.1,1.6,4.7,4.3,4.7,8.2v14h0.9c0.6,0,0.9-0.3,0.9-0.9V79.4z M134.3,92.4h-5.6
			c-0.6,0-0.9,0.3-0.9,1c0,0.6,0.3,0.9,0.9,0.9h3.7C133.7,94.3,134.3,93.6,134.3,92.4z M134.3,83.1v-7.5c0-1.1-0.6-1.8-1.8-1.8
			c-1.3,0.1-1.9,0.7-1.9,1.8v7.5c0,1.1,0.6,1.8,1.9,1.9C133.7,84.9,134.3,84.3,134.3,83.1z"/>
		<linearGradient id="SVGID_51_" gradientUnits="userSpaceOnUse" x1="152.5352" y1="68.2332" x2="152.5352" y2="90.6009">
			<stop  offset="1.082549e-07" style="stop-color:#6E02F5"/>
			<stop  offset="1" style="stop-color:#23014D"/>
		</linearGradient>
		<linearGradient id="SVGID_52_" gradientUnits="userSpaceOnUse" x1="152.5352" y1="91.2259" x2="152.5352" y2="67.6082">
			<stop  offset="1.082549e-07" style="stop-color:#6E02F5"/>
			<stop  offset="0.9748" style="stop-color:#23014D"/>
		</linearGradient>
		<path class="st35" d="M160.5,79.4h0.9V84c0,1.2-0.6,1.8-1.8,1.9h-0.2c-0.7,3.1-3.2,4.7-7.3,4.7h-3.7c-1.7,0-2.7-0.9-2.8-2.8
			c0.2-1.8,1.1-2.8,2.8-2.8h3.7c0-1-0.6-2-1.7-2.9c-1.8-1.5-2.8-2.5-3.1-2.9c-1.1-1.5-1.7-3.3-1.7-5.4c-0.6,0-0.9,0.3-0.9,0.9v4.7
			h-0.9v-4.7c0-1.1,0.6-1.8,1.8-1.8h0.1c0.7-3.1,3.2-4.7,7.4-4.7h3.7c1.7,0,2.7,0.9,2.8,2.8c-0.2,1.9-1.1,2.8-2.8,2.8H153
			c0,1,0.6,1.9,1.7,2.9c1.8,1.5,2.9,2.5,3.2,2.9c1.1,1.5,1.7,3.3,1.7,5.4c0.6,0,0.9-0.3,0.9-1V79.4z M150.2,87.8
			c1,0,1.6-0.6,1.8-1.8h-2.8c-0.6,0-0.9,0.3-0.9,0.9c0,0.6,0.4,0.9,0.9,0.9H150.2z M154.8,71c-0.9,0-1.5,0.6-1.8,1.9h2.8
			c0.6,0,0.9-0.3,0.9-0.9c0-0.7-0.4-1-0.9-1H154.8z"/>
	</g>
	<g id="B_placeholder_3_" class="st7">
		<linearGradient id="SVGID_53_" gradientUnits="userSpaceOnUse" x1="30.0613" y1="60.7586" x2="30.0613" y2="92.4408">
			<stop  offset="1.082549e-07" style="stop-color:#6E02F5"/>
			<stop  offset="1" style="stop-color:#23014D"/>
		</linearGradient>
		<linearGradient id="SVGID_54_" gradientUnits="userSpaceOnUse" x1="30.0613" y1="93.0658" x2="30.0613" y2="60.1336">
			<stop  offset="1.082549e-07" style="stop-color:#6E02F5"/>
			<stop  offset="0.9748" style="stop-color:#23014D"/>
		</linearGradient>
		<path class="st36" d="M29.1,60.8H31v31.7h-1.8V60.8z"/>
		<linearGradient id="SVGID_55_" gradientUnits="userSpaceOnUse" x1="37.1925" y1="60.7586" x2="37.1925" y2="94.3382">
			<stop  offset="1.082549e-07" style="stop-color:#6E02F5"/>
			<stop  offset="1" style="stop-color:#23014D"/>
		</linearGradient>
		<linearGradient id="SVGID_56_" gradientUnits="userSpaceOnUse" x1="37.1925" y1="94.9632" x2="37.1925" y2="60.1336">
			<stop  offset="1.082549e-07" style="stop-color:#6E02F5"/>
			<stop  offset="0.9748" style="stop-color:#23014D"/>
		</linearGradient>
		<path class="st37" d="M33.6,77.5c2.5,0.2,3.5,1.4,3.5,3.7v9.3c-0.1,1.2-0.7,1.8-1.9,1.8h-1.8v1.9h3.8c2.5-0.2,3.7-1.4,3.7-3.7
			V80.4c0.1-1.3-0.1-1.9-1.2-1.9h-1.8v-1.8h1.8c1.2-0.1,1.2-0.7,1.2-1.9V64.5c-0.2-2.5-1.4-3.7-3.7-3.7h-3.8v1.8h1.8
			c1.2,0.1,1.9,0.7,1.9,1.9v9.3C37.3,76.3,35.9,77.5,33.6,77.5z"/>
	</g>
	<g id="atherine_2_" class="st7">
		<linearGradient id="SVGID_57_" gradientUnits="userSpaceOnUse" x1="37.5938" y1="13.2332" x2="37.5938" y2="35.6009">
			<stop  offset="1.082549e-07" style="stop-color:#6E02F5"/>
			<stop  offset="1" style="stop-color:#23014D"/>
		</linearGradient>
		<linearGradient id="SVGID_58_" gradientUnits="userSpaceOnUse" x1="37.5938" y1="36.2259" x2="37.5938" y2="12.6082">
			<stop  offset="1.082549e-07" style="stop-color:#6E02F5"/>
			<stop  offset="0.9748" style="stop-color:#23014D"/>
		</linearGradient>
		<path class="st38" d="M37.6,18.8H26.4v5.6h-0.9V16c0.1-1.8,1-2.8,2.8-2.8h10.3c1.6,0.1,3,0.5,4.2,1c2.8,1.4,4.2,3.8,4.2,7.4v10.2
			c0,0.6,0.3,0.9,0.9,0.9c0.6,0,0.9-0.3,0.9-0.9v-7.5h0.9v8.4c0,1.8-0.9,2.7-2.8,2.8h-3.7c-2.5-0.2-3.7-1.4-3.7-3.7V29
			c0,4.1-1.9,6.2-5.6,6.6c-3.5,0-5.4-2.2-5.6-6.6c0.3-4.3,2.1-6.5,5.6-6.5h5.6v-1.9C39.4,19.5,38.8,18.9,37.6,18.8z M39.4,28.1v-1.8
			h-1.8c-0.5,0-1,0.2-1.4,0.5c-0.4,0.4-0.5,0.8-0.5,1.3c0,0.5,0.2,1,0.5,1.4c0.4,0.4,0.8,0.5,1.4,0.5c0.5,0,0.9-0.2,1.3-0.5
			C39.3,29.1,39.4,28.7,39.4,28.1z"/>
		<linearGradient id="SVGID_59_" gradientUnits="userSpaceOnUse" x1="56.741" y1="5.7586" x2="56.741" y2="35.6009">
			<stop  offset="1.082549e-07" style="stop-color:#6E02F5"/>
			<stop  offset="1" style="stop-color:#23014D"/>
		</linearGradient>
		<linearGradient id="SVGID_60_" gradientUnits="userSpaceOnUse" x1="56.741" y1="36.2259" x2="56.741" y2="5.1336">
			<stop  offset="1.082549e-07" style="stop-color:#6E02F5"/>
			<stop  offset="0.9748" style="stop-color:#23014D"/>
		</linearGradient>
		<path class="st39" d="M63.8,24.4h0.9v8.4c0,1.8-0.9,2.7-2.8,2.8h-6.6c-2.5-0.2-3.7-1.4-3.7-3.7V18.8h-1.8v5.6h-0.9v-9.3h2.8V5.8
			H59v9.3h2.8v3.7H59V30h3.8c0.6,0,0.9-0.4,0.9-1V24.4z"/>
		<linearGradient id="SVGID_61_" gradientUnits="userSpaceOnUse" x1="75.8882" y1="3.8607" x2="75.8882" y2="35.6009">
			<stop  offset="1.082549e-07" style="stop-color:#6E02F5"/>
			<stop  offset="1" style="stop-color:#23014D"/>
		</linearGradient>
		<linearGradient id="SVGID_62_" gradientUnits="userSpaceOnUse" x1="75.8882" y1="36.2259" x2="75.8882" y2="3.2357">
			<stop  offset="1.082549e-07" style="stop-color:#6E02F5"/>
			<stop  offset="0.9748" style="stop-color:#23014D"/>
		</linearGradient>
		<path class="st40" d="M66.5,3.9h3.7C72.7,4.1,74,5.3,74,7.6v12.1c0-4,1.9-6.2,5.6-6.5c3.7,0.3,5.6,2.5,5.6,6.5v12.1
			c0,0.6,0.3,0.9,0.9,0.9c0.6,0,0.9-0.3,0.9-0.9v-7.5H88v8.4c0,1.8-0.9,2.7-2.8,2.8h-3.7c-2.5-0.2-3.7-1.4-3.7-3.7V20.7
			c0-1.1-0.6-1.8-1.8-1.8c-1.3,0.1-1.9,0.7-1.9,1.8v15h-7.5v-28c0-0.6-0.3-0.9-0.9-0.9c-0.6,0-0.9,0.3-0.9,0.9v16.8h-0.9V6.7
			C63.8,5,64.7,4,66.5,3.9z"/>
		<linearGradient id="SVGID_63_" gradientUnits="userSpaceOnUse" x1="98.2842" y1="13.2332" x2="98.2842" y2="35.6009">
			<stop  offset="1.082549e-07" style="stop-color:#6E02F5"/>
			<stop  offset="1" style="stop-color:#23014D"/>
		</linearGradient>
		<linearGradient id="SVGID_64_" gradientUnits="userSpaceOnUse" x1="98.2842" y1="36.2259" x2="98.2842" y2="12.6082">
			<stop  offset="1.082549e-07" style="stop-color:#6E02F5"/>
			<stop  offset="0.9748" style="stop-color:#23014D"/>
		</linearGradient>
		<path class="st41" d="M99.2,30h9.3v-5.6h0.9v8.4c-0.1,1.9-1.1,2.8-2.8,2.8h-8.4c-1.6-0.1-3-0.5-4.2-1c-2.8-1.4-4.2-3.9-4.2-7.4V17
			c0-0.6-0.3-0.9-0.9-1c-0.6,0.1-0.9,0.4-0.9,1v7.4h-0.9V17c0-1.2,0.6-1.8,1.8-1.9c1.1,0,1.8,0.6,1.9,1.9v0.7c1.3-3,3.8-4.4,7.4-4.4
			c1.7,0.1,3.1,0.5,4.2,1c2.8,1.4,4.2,3.8,4.2,7.4v4.7h-9.3v1.8C97.5,29.4,98.1,30,99.2,30z M97.3,20.7v1.9h3.7v-1.9
			c0-1.1-0.6-1.8-1.8-1.8C98,18.9,97.3,19.5,97.3,20.7z"/>
		<linearGradient id="SVGID_65_" gradientUnits="userSpaceOnUse" x1="117.8628" y1="13.2332" x2="117.8628" y2="35.6009">
			<stop  offset="1.082549e-07" style="stop-color:#6E02F5"/>
			<stop  offset="1" style="stop-color:#23014D"/>
		</linearGradient>
		<linearGradient id="SVGID_66_" gradientUnits="userSpaceOnUse" x1="117.8628" y1="36.2259" x2="117.8628" y2="12.6082">
			<stop  offset="1.082549e-07" style="stop-color:#6E02F5"/>
			<stop  offset="0.9748" style="stop-color:#23014D"/>
		</linearGradient>
		<path class="st42" d="M124.4,13.2v13.1c0,0.6,0.3,0.9,0.9,0.9c0.6,0,0.9-0.3,0.9-0.9v-1.9h0.9v1.9c0,1.1-0.6,1.8-1.8,1.8
			c-1.2-0.1-1.9-0.7-1.9-1.8v-0.9l-4.7-2.8v13.1h-7.5V17c0-0.6-0.3-0.9-0.9-1c-0.6,0.1-0.9,0.4-0.9,1v7.4h-0.9V16
			c0-1.7,0.9-2.6,2.8-2.8h7.5v5.6l4.7-5.6H124.4z"/>
		<linearGradient id="SVGID_67_" gradientUnits="userSpaceOnUse" x1="132.7839" y1="3.8607" x2="132.7839" y2="35.6009">
			<stop  offset="1.082549e-07" style="stop-color:#6E02F5"/>
			<stop  offset="1" style="stop-color:#23014D"/>
		</linearGradient>
		<linearGradient id="SVGID_68_" gradientUnits="userSpaceOnUse" x1="132.7839" y1="36.2259" x2="132.7839" y2="3.2357">
			<stop  offset="1.082549e-07" style="stop-color:#6E02F5"/>
			<stop  offset="0.9748" style="stop-color:#23014D"/>
		</linearGradient>
		<path class="st43" d="M138.4,24.4h0.9v8.4c0,1.8-0.9,2.7-2.8,2.8h-3.7c-2.5-0.2-3.7-1.4-3.7-3.7V17c0-0.6-0.3-0.9-0.9-1
			c-0.6,0.1-0.9,0.4-0.9,1v7.4h-0.9V16c0-1.7,0.9-2.6,2.8-2.8h3.7c2.5,0.2,3.7,1.4,3.7,3.7v14.9c0,0.6,0.3,0.9,0.9,0.9
			c0.7,0,1-0.3,1-0.9V24.4z M132.8,11.3c-1,0-1.9-0.4-2.6-1.1c-0.7-0.7-1.1-1.6-1.1-2.6s0.4-1.9,1.1-2.6c0.7-0.7,1.6-1.1,2.6-1.1
			c1,0,1.9,0.4,2.6,1.1c0.7,0.7,1.1,1.6,1.1,2.6s-0.4,1.9-1.1,2.6C134.7,11,133.8,11.3,132.8,11.3z"/>
		<linearGradient id="SVGID_69_" gradientUnits="userSpaceOnUse" x1="150.5225" y1="13.2332" x2="150.5225" y2="35.6009">
			<stop  offset="1.082549e-07" style="stop-color:#6E02F5"/>
			<stop  offset="1" style="stop-color:#23014D"/>
		</linearGradient>
		<linearGradient id="SVGID_70_" gradientUnits="userSpaceOnUse" x1="150.5225" y1="36.2259" x2="150.5225" y2="12.6061">
			<stop  offset="1.082549e-07" style="stop-color:#6E02F5"/>
			<stop  offset="0.9748" style="stop-color:#23014D"/>
		</linearGradient>
		<path class="st44" d="M161.7,24.4h0.9v8.4c0,1.8-0.9,2.7-2.8,2.8h-3.7c-2.5-0.2-3.7-1.4-3.7-3.7V20.7c0-1.1-0.6-1.8-1.8-1.8
			c-1.3,0.1-1.9,0.7-1.9,1.8v15h-7.5V17c0-0.6-0.3-0.9-0.9-1c-0.6,0.1-0.9,0.4-0.9,1v7.4h-0.9V16c0-1.7,0.9-2.6,2.8-2.8h3.7
			c2.5,0.2,3.7,1.4,3.7,3.7v2.8c0-4,1.9-6.2,5.6-6.5c3.7,0.3,5.6,2.5,5.6,6.5v12.1c0,0.6,0.3,0.9,0.9,0.9c0.6,0,0.9-0.3,0.9-0.9
			V24.4z"/>
		<linearGradient id="SVGID_71_" gradientUnits="userSpaceOnUse" x1="172.9182" y1="13.2332" x2="172.9182" y2="35.6009">
			<stop  offset="1.082549e-07" style="stop-color:#6E02F5"/>
			<stop  offset="1" style="stop-color:#23014D"/>
		</linearGradient>
		<linearGradient id="SVGID_72_" gradientUnits="userSpaceOnUse" x1="172.9182" y1="36.2259" x2="172.9182" y2="12.6082">
			<stop  offset="1.082549e-07" style="stop-color:#6E02F5"/>
			<stop  offset="0.9748" style="stop-color:#23014D"/>
		</linearGradient>
		<path class="st45" d="M173.9,30h9.3v-5.6h0.9v8.4c-0.1,1.9-1.1,2.8-2.8,2.8h-8.4c-1.6-0.1-3-0.5-4.2-1c-2.8-1.4-4.2-3.9-4.2-7.4
			V17c0-0.6-0.3-0.9-0.9-1c-0.6,0.1-0.9,0.4-0.9,1v7.4h-0.9V17c0-1.2,0.6-1.8,1.8-1.9c1.1,0,1.8,0.6,1.9,1.9v0.7
			c1.3-3,3.8-4.4,7.4-4.4c1.7,0.1,3.1,0.5,4.2,1c2.8,1.4,4.2,3.8,4.2,7.4v4.7H172v1.8C172.1,29.4,172.7,30,173.9,30z M172,20.7v1.9
			h3.7v-1.9c0-1.1-0.6-1.8-1.8-1.8C172.6,18.9,172,19.5,172,20.7z"/>
	</g>
	<g id="K-placeholder_2_" class="st7">
		<linearGradient id="SVGID_73_" gradientUnits="userSpaceOnUse" x1="7.0613" y1="5.7586" x2="7.0613" y2="37.4408">
			<stop  offset="1.082549e-07" style="stop-color:#6E02F5"/>
			<stop  offset="1" style="stop-color:#23014D"/>
		</linearGradient>
		<linearGradient id="SVGID_74_" gradientUnits="userSpaceOnUse" x1="7.0613" y1="38.0658" x2="7.0613" y2="5.1336">
			<stop  offset="1.082549e-07" style="stop-color:#6E02F5"/>
			<stop  offset="0.9748" style="stop-color:#23014D"/>
		</linearGradient>
		<path class="st46" d="M6.1,5.8H8v31.7H6.1V5.8z"/>
		<linearGradient id="SVGID_75_" gradientUnits="userSpaceOnUse" x1="16.1572" y1="5.7586" x2="16.1572" y2="39.3382">
			<stop  offset="1.082549e-07" style="stop-color:#6E02F5"/>
			<stop  offset="1" style="stop-color:#23014D"/>
		</linearGradient>
		<linearGradient id="SVGID_76_" gradientUnits="userSpaceOnUse" x1="16.1572" y1="39.9632" x2="16.1572" y2="5.1336">
			<stop  offset="1.082549e-07" style="stop-color:#6E02F5"/>
			<stop  offset="0.9748" style="stop-color:#23014D"/>
		</linearGradient>
		<path class="st47" d="M17.9,18.8c-0.2,2.5-1.4,3.7-3.7,3.7c2.5,0.2,3.7,1.4,3.7,3.7v9.3c0.1,1.2,0.8,1.8,1.9,1.8h1.9v1.9H18
			c-2.5-0.2-3.7-1.4-3.7-3.7V25.4c-0.1-1.3-0.7-1.9-1.9-1.9h-1.8v-1.8h1.8c1.3-0.1,1.9-0.7,1.9-1.9V9.5C14.5,7,15.7,5.8,18,5.8h3.7
			v1.8h-1.9c-1.3,0.1-1.9,0.7-1.9,1.9V18.8z"/>
	</g>
</g>
</svg>
